<svg xmlns="http://www.w3.org/2000/svg" style="display: none;">
   <symbol id="bottom-line" viewBox="0 0 1160 12" fill="none" xmlns="http://www.w3.org/2000/svg">
      <line x1="0.5" x2="0.5" y2="12" stroke="#1F1F1F" />
      <line x1="143.881" x2="143.881" y2="12" stroke="#1F1F1F" />
      <line x1="287.263" x2="287.263" y2="12" stroke="#1F1F1F" />
      <line x1="430.644" x2="430.644" y2="12" stroke="#1F1F1F" />
      <line x1="574.026" x2="574.026" y2="12" stroke="#1F1F1F" />
      <line x1="36.3453" x2="36.3453" y2="12" stroke="#1F1F1F" />
      <line x1="179.727" x2="179.727" y2="12" stroke="#1F1F1F" />
      <line x1="323.108" x2="323.108" y2="12" stroke="#1F1F1F" />
      <line x1="466.49" x2="466.49" y2="12" stroke="#1F1F1F" />
      <line x1="609.871" x2="609.871" y2="12" stroke="#1F1F1F" />
      <line x1="72.1907" x2="72.1907" y2="12" stroke="#1F1F1F" />
      <line x1="215.572" x2="215.572" y2="12" stroke="#1F1F1F" />
      <line x1="358.954" x2="358.954" y2="12" stroke="#1F1F1F" />
      <line x1="502.335" x2="502.335" y2="12" stroke="#1F1F1F" />
      <line x1="645.717" x2="645.717" y2="12" stroke="#1F1F1F" />
      <line x1="108.036" x2="108.036" y2="12" stroke="#1F1F1F" />
      <line x1="251.417" x2="251.417" y2="12" stroke="#1F1F1F" />
      <line x1="394.799" x2="394.799" y2="12" stroke="#1F1F1F" />
      <line x1="538.181" x2="538.181" y2="12" stroke="#1F1F1F" />
      <line x1="681.562" x2="681.562" y2="12" stroke="#1F1F1F" />
      <line x1="12.4485" x2="12.4485" y2="12" stroke="#1F1F1F" />
      <line x1="155.83" x2="155.83" y2="12" stroke="#1F1F1F" />
      <line x1="299.211" x2="299.211" y2="12" stroke="#1F1F1F" />
      <line x1="442.593" x2="442.593" y2="12" stroke="#1F1F1F" />
      <line x1="585.974" x2="585.974" y2="12" stroke="#1F1F1F" />
      <line x1="48.2938" x2="48.2938" y2="12" stroke="#1F1F1F" />
      <line x1="191.675" x2="191.675" y2="12" stroke="#1F1F1F" />
      <line x1="335.057" x2="335.057" y2="12" stroke="#1F1F1F" />
      <line x1="478.438" x2="478.438" y2="12" stroke="#1F1F1F" />
      <line x1="621.819" x2="621.819" y2="12" stroke="#1F1F1F" />
      <line x1="84.1392" x2="84.1392" y2="12" stroke="#1F1F1F" />
      <line x1="227.521" x2="227.521" y2="12" stroke="#1F1F1F" />
      <line x1="370.902" x2="370.902" y2="12" stroke="#1F1F1F" />
      <line x1="514.283" x2="514.283" y2="12" stroke="#1F1F1F" />
      <line x1="657.665" x2="657.665" y2="12" stroke="#1F1F1F" />
      <line x1="119.984" x2="119.984" y2="12" stroke="#1F1F1F" />
      <line x1="263.366" x2="263.366" y2="12" stroke="#1F1F1F" />
      <line x1="406.747" x2="406.747" y2="12" stroke="#1F1F1F" />
      <line x1="550.129" x2="550.129" y2="12" stroke="#1F1F1F" />
      <line x1="693.51" x2="693.51" y2="12" stroke="#1F1F1F" />
      <line x1="24.3969" x2="24.3969" y2="12" stroke="#1F1F1F" />
      <line x1="167.778" x2="167.778" y2="12" stroke="#1F1F1F" />
      <line x1="311.16" x2="311.16" y2="12" stroke="#1F1F1F" />
      <line x1="454.541" x2="454.541" y2="12" stroke="#1F1F1F" />
      <line x1="597.923" x2="597.923" y2="12" stroke="#1F1F1F" />
      <line x1="60.2423" x2="60.2423" y2="12" stroke="#1F1F1F" />
      <line x1="203.624" x2="203.624" y2="12" stroke="#1F1F1F" />
      <line x1="347.005" x2="347.005" y2="12" stroke="#1F1F1F" />
      <line x1="490.387" x2="490.387" y2="12" stroke="#1F1F1F" />
      <line x1="633.768" x2="633.768" y2="12" stroke="#1F1F1F" />
      <line x1="96.0876" x2="96.0876" y2="12" stroke="#1F1F1F" />
      <line x1="239.469" x2="239.469" y2="12" stroke="#1F1F1F" />
      <line x1="382.851" x2="382.851" y2="12" stroke="#1F1F1F" />
      <line x1="526.232" x2="526.232" y2="12" stroke="#1F1F1F" />
      <line x1="669.613" x2="669.613" y2="12" stroke="#1F1F1F" />
      <line x1="131.933" x2="131.933" y2="12" stroke="#1F1F1F" />
      <line x1="275.314" x2="275.314" y2="12" stroke="#1F1F1F" />
      <line x1="418.696" x2="418.696" y2="12" stroke="#1F1F1F" />
      <line x1="562.077" x2="562.077" y2="12" stroke="#1F1F1F" />
      <line x1="705.459" x2="705.459" y2="12" stroke="#1F1F1F" />
      <line x1="860.789" x2="860.789" y2="12" stroke="#1F1F1F" />
      <line x1="1004.17" x2="1004.17" y2="12" stroke="#1F1F1F" />
      <line x1="729.356" x2="729.356" y2="12" stroke="#1F1F1F" />
      <line x1="1147.55" x2="1147.55" y2="12" stroke="#1F1F1F" />
      <line x1="1159.5" x2="1159.5" y2="12" stroke="#1F1F1F" />
      <line x1="777.149" x2="777.149" y2="12" stroke="#1F1F1F" />
      <line x1="872.737" x2="872.737" y2="12" stroke="#1F1F1F" />
      <line x1="920.531" x2="920.531" y2="12" stroke="#1F1F1F" />
      <line x1="1016.12" x2="1016.12" y2="12" stroke="#1F1F1F" />
      <line x1="753.252" x2="753.252" y2="12" stroke="#1F1F1F" />
      <line x1="896.634" x2="896.634" y2="12" stroke="#1F1F1F" />
      <line x1="1040.02" x2="1040.02" y2="12" stroke="#1F1F1F" />
      <line x1="765.201" x2="765.201" y2="12" stroke="#1F1F1F" />
      <line x1="908.583" x2="908.583" y2="12" stroke="#1F1F1F" />
      <line x1="789.098" x2="789.098" y2="12" stroke="#1F1F1F" />
      <line x1="1051.96" x2="1051.96" y2="12" stroke="#1F1F1F" />
      <line x1="932.479" x2="932.479" y2="12" stroke="#1F1F1F" />
      <line x1="1075.86" x2="1075.86" y2="12" stroke="#1F1F1F" />
      <line x1="824.943" x2="824.943" y2="12" stroke="#1F1F1F" />
      <line x1="968.325" x2="968.325" y2="12" stroke="#1F1F1F" />
      <line x1="1111.71" x2="1111.71" y2="12" stroke="#1F1F1F" />
      <line x1="717.407" x2="717.407" y2="12" stroke="#1F1F1F" />
      <line x1="801.046" x2="801.046" y2="12" stroke="#1F1F1F" />
      <line x1="944.428" x2="944.428" y2="12" stroke="#1F1F1F" />
      <line x1="1087.81" x2="1087.81" y2="12" stroke="#1F1F1F" />
      <line x1="836.892" x2="836.892" y2="12" stroke="#1F1F1F" />
      <line x1="980.273" x2="980.273" y2="12" stroke="#1F1F1F" />
      <line x1="1123.65" x2="1123.65" y2="12" stroke="#1F1F1F" />
      <line x1="741.304" x2="741.304" y2="12" stroke="#1F1F1F" />
      <line x1="884.686" x2="884.686" y2="12" stroke="#1F1F1F" />
      <line x1="1028.07" x2="1028.07" y2="12" stroke="#1F1F1F" />
      <line x1="1063.91" x2="1063.91" y2="12" stroke="#1F1F1F" />
      <line x1="812.995" x2="812.995" y2="12" stroke="#1F1F1F" />
      <line x1="956.376" x2="956.376" y2="12" stroke="#1F1F1F" />
      <line x1="1099.76" x2="1099.76" y2="12" stroke="#1F1F1F" />
      <line x1="848.84" x2="848.84" y2="12" stroke="#1F1F1F" />
      <line x1="992.222" x2="992.222" y2="12" stroke="#1F1F1F" />
      <line x1="1135.6" x2="1135.6" y2="12" stroke="#1F1F1F" />
   </symbol>
   <!--  width="125" height="110"  -->
   <symbol id="hero-lens" viewBox="0 0 125 110" fill="none" xmlns="http://www.w3.org/2000/svg">
      <circle cx="62.3101" cy="54.8709" r="49.29" stroke="white" stroke-width="0.62" />
      <line x1="62.6201" y1="46.31" x2="62.6201" y2="64.31" stroke="white" stroke-width="0.62" />
      <line x1="53.3101" y1="55.0001" x2="71.3101" y2="55.0001" stroke="white" stroke-width="0.62" />
      <path
         d="M12.7101 0.309998H0.310059V12.71M111.6 0.309998H124.31V12.71M12.7101 109.43H0.310059V97.03M111.6 109.43H124.31V97.03"
         stroke="white" stroke-width="0.62" />
   </symbol>
   <!--  width="125" height="110"  -->
   <symbol id="lens" viewBox="0 0 125 110" fill="none" xmlns="http://www.w3.org/2000/svg">
      <circle cx="62.3101" cy="54.8709" r="49.29" stroke="white" stroke-width="0.62" />
      <line x1="62.6201" y1="46.31" x2="62.6201" y2="64.31" stroke="white" stroke-width="0.62" />
      <line x1="53.3101" y1="55.0001" x2="71.3101" y2="55.0001" stroke="white" stroke-width="0.62" />
      <path
         d="M12.7101 0.309998H0.310059V12.71M111.6 0.309998H124.31V12.71M12.7101 109.43H0.310059V97.03M111.6 109.43H124.31V97.03"
         stroke="white" stroke-width="0.62" />
   </symbol>
   <!--  width="296" height="261"  -->
   <symbol id="select" viewBox="0 0 296 261" fill="none" xmlns="http://www.w3.org/2000/svg">
      <circle cx="147.735" cy="130.095" r="116.865" stroke="#0A0909" stroke-width="1.47" />
      <path
         d="M30.135 0.735107H0.734985V30.1351M264.6 0.735107H294.735V30.1351M30.135 259.455H0.734985V230.055M264.6 259.455H294.735V230.055"
         stroke="#0A0909" stroke-width="1.47" />
      <path
         d="M68.655 136.995H68.115C60.655 136.995 59.855 133.855 59.855 131.975V131.795H65.015C65.075 132.415 65.315 133.735 68.295 133.735H68.415C71.315 133.735 71.695 132.915 71.695 132.175C71.695 131.395 71.215 130.855 68.775 130.795L66.735 130.735C61.535 130.595 60.035 128.595 60.035 126.295V126.115C60.035 123.675 61.475 121.655 67.815 121.655H68.575C75.455 121.655 76.475 124.095 76.475 126.175V126.335H71.395C71.295 125.715 70.915 124.815 68.255 124.815H68.075C65.535 124.815 65.015 125.295 65.015 126.035C65.015 126.735 65.515 127.235 67.775 127.315L69.875 127.375C75.435 127.555 76.735 129.255 76.735 131.795V132.035C76.735 134.335 75.675 136.995 68.655 136.995ZM86.2956 128.035C84.4756 128.035 83.7956 128.755 83.5756 129.855H88.9756C88.9556 129.015 88.5356 128.035 86.2956 128.035ZM93.7756 133.175C93.7356 134.295 92.9156 137.015 86.8756 137.015H86.0556C80.1756 137.015 78.8556 133.875 78.8556 131.315V131.035C78.8556 128.495 80.1356 125.335 85.7956 125.335H86.6756C92.7356 125.335 93.8156 128.495 93.8156 131.635V132.035H83.5156C83.7356 133.275 84.4956 134.135 86.6156 134.135C88.6356 134.135 88.9556 133.375 89.0356 133.175H93.7756ZM100.87 121.595V136.735H96.3301V121.595H100.87ZM110.846 128.035C109.026 128.035 108.346 128.755 108.126 129.855H113.526C113.506 129.015 113.086 128.035 110.846 128.035ZM118.326 133.175C118.286 134.295 117.466 137.015 111.426 137.015H110.606C104.726 137.015 103.406 133.875 103.406 131.315V131.035C103.406 128.495 104.686 125.335 110.346 125.335H111.226C117.286 125.335 118.366 128.495 118.366 131.635V132.035H108.066C108.286 133.275 109.046 134.135 111.166 134.135C113.186 134.135 113.506 133.375 113.586 133.175H118.326ZM135.001 132.235C135.001 133.915 134.141 137.035 128.241 137.035H127.261C121.301 137.035 120.301 133.455 120.301 131.255V130.975C120.301 128.795 121.321 125.295 127.241 125.295H128.101C134.181 125.295 135.001 128.375 135.001 129.935V129.955H130.261C130.221 129.615 129.841 128.395 127.781 128.395H127.601C125.561 128.395 125.021 129.775 125.021 131.075V131.095C125.021 132.395 125.621 133.895 127.641 133.895H127.821C129.921 133.895 130.241 132.555 130.261 132.235H135.001ZM145.962 133.435V136.735H142.022C140.242 136.735 139.042 135.755 139.042 133.755V128.675H136.702V125.595H139.042V122.235H143.542V125.595H145.962V128.675H143.542V132.255C143.542 133.095 143.762 133.435 144.662 133.435H145.962ZM160.095 134.335C162.135 134.335 162.895 133.075 162.895 132.215V131.515C162.535 131.615 161.615 131.795 160.655 131.955C158.895 132.255 158.395 132.515 158.395 133.215V133.255C158.395 133.875 158.895 134.335 160.095 134.335ZM163.015 135.275C162.575 135.775 161.395 136.955 158.715 136.955H158.375C155.275 136.955 153.875 135.355 153.875 133.395V133.315C153.875 131.315 155.095 130.215 158.975 129.915L162.075 129.675C162.675 129.635 162.895 129.415 162.895 129.015V128.995C162.895 128.495 162.675 128.015 160.815 128.015H160.755C158.875 128.015 158.735 128.775 158.715 129.135H154.155V129.115C154.155 127.795 154.695 125.335 160.435 125.335H161.075C166.875 125.335 167.335 127.535 167.335 129.135V132.695C167.335 133.235 167.455 133.475 168.055 133.475H168.575V136.735H164.895C163.755 136.735 163.215 135.935 163.015 135.275ZM183.504 128.515C181.324 128.515 180.764 129.995 180.764 131.115V131.175C180.764 132.255 181.344 133.795 183.504 133.795H183.704C185.804 133.795 186.464 132.335 186.464 131.175V131.115C186.464 129.955 185.804 128.515 183.704 128.515H183.504ZM186.444 121.595H190.984V136.735H186.444V135.355C186.064 135.775 184.804 136.955 182.204 136.955H181.964C177.704 136.975 176.064 134.095 176.064 131.375V130.975C176.064 128.275 177.604 125.375 181.924 125.375H182.164C184.704 125.375 185.964 126.275 186.444 126.675V121.595ZM199.724 134.335C201.764 134.335 202.524 133.075 202.524 132.215V131.515C202.164 131.615 201.244 131.795 200.284 131.955C198.524 132.255 198.024 132.515 198.024 133.215V133.255C198.024 133.875 198.524 134.335 199.724 134.335ZM202.644 135.275C202.204 135.775 201.024 136.955 198.344 136.955H198.004C194.904 136.955 193.504 135.355 193.504 133.395V133.315C193.504 131.315 194.724 130.215 198.604 129.915L201.704 129.675C202.304 129.635 202.524 129.415 202.524 129.015V128.995C202.524 128.495 202.304 128.015 200.444 128.015H200.384C198.504 128.015 198.364 128.775 198.344 129.135H193.784V129.115C193.784 127.795 194.324 125.335 200.064 125.335H200.704C206.504 125.335 206.964 127.535 206.964 129.135V132.695C206.964 133.235 207.084 133.475 207.684 133.475H208.204V136.735H204.524C203.384 136.735 202.844 135.935 202.644 135.275ZM218.462 133.435V136.735H214.522C212.742 136.735 211.542 135.755 211.542 133.755V128.675H209.202V125.595H211.542V122.235H216.042V125.595H218.462V128.675H216.042V132.255C216.042 133.095 216.262 133.435 217.162 133.435H218.462ZM227.917 128.035C226.097 128.035 225.417 128.755 225.197 129.855H230.597C230.577 129.015 230.157 128.035 227.917 128.035ZM235.397 133.175C235.357 134.295 234.537 137.015 228.497 137.015H227.677C221.797 137.015 220.477 133.875 220.477 131.315V131.035C220.477 128.495 221.757 125.335 227.417 125.335H228.297C234.357 125.335 235.437 128.495 235.437 131.635V132.035H225.137C225.357 133.275 226.117 134.135 228.237 134.135C230.257 134.135 230.577 133.375 230.657 133.175H235.397Z"
         fill="#0A0909" />
   </symbol>
   <!--  width="19" height="14"  -->
   <symbol id="rect" viewBox="0 0 19 14" fill="none" xmlns="http://www.w3.org/2000/svg">
      <path
         d="M0.18805 1.58124C-0.284713 0.91937 0.188411 0 1.00178 0H17.1154C17.9288 0 18.4019 0.91937 17.9291 1.58124L9.87233 12.8608C9.47351 13.4191 8.64368 13.4191 8.24486 12.8608L0.18805 1.58124Z"
         fill="#1F1F1F" />
   </symbol>
</svg>